<svg width="24" height="24" viewBox="0 0 24 24" fill="none" xmlns="http://www.w3.org/2000/svg">
<path d="M8.00001 12.75H16C16.2128 12.75 16.391 12.6782 16.5346 12.5346C16.6782 12.391 16.75 12.2128 16.75 12C16.75 11.7872 16.6782 11.609 16.5346 11.4654C16.391 11.3218 16.2128 11.25 16 11.25H8.00001C7.78719 11.25 7.60899 11.3218 7.46541 11.4654C7.32182 11.609 7.25003 11.7872 7.25003 12C7.25003 12.2128 7.32182 12.391 7.46541 12.5346C7.60899 12.6782 7.78719 12.75 8.00001 12.75ZM5.30773 20.5C4.8026 20.5 4.37503 20.325 4.02503 19.975C3.67503 19.625 3.50003 19.1974 3.50003 18.6923V5.30773C3.50003 4.8026 3.67503 4.37503 4.02503 4.02503C4.37503 3.67503 4.8026 3.50003 5.30773 3.50003H18.6923C19.1974 3.50003 19.625 3.67503 19.975 4.02503C20.325 4.37503 20.5 4.8026 20.5 5.30773V18.6923C20.5 19.1974 20.325 19.625 19.975 19.975C19.625 20.325 19.1974 20.5 18.6923 20.5H5.30773Z" fill="#5D5FEF"/>
<rect x="3" y="3" width="18" height="18" rx="2" fill="#5D5FEF"/>
<path d="M8 12L16 12" stroke="white" stroke-width="1.5" stroke-linecap="round"/>
</svg>
